<svg width="1280" height="1080" viewBox="0 0 1280 1080" fill="none" xmlns="http://www.w3.org/2000/svg">
<path fill-rule="evenodd" clip-rule="evenodd" d="M1420.15 1001.3C1415.26 993.98 1401.47 989.42 1393.67 985.18C1393.58 977.72 1392.91 967.75 1394.82 962.15C1408.46 962.79 1421.88 965.18 1423.61 952.94H1385.61C1387.24 948.17 1392.02 943.91 1395.97 941.43C1395.55 937.11 1395.08 937.15 1393.67 934.52C1372.76 934.38 1358.97 929.34 1343.01 925.31C1335.33 924.93 1327.66 924.54 1319.98 924.16C1309.58 921.61 1297.35 918.62 1286.59 916.1C1274.69 915.33 1262.79 914.57 1250.9 913.8C1241.05 911.14 1229.63 907.37 1219.81 904.59C1212.95 902.65 1207.54 903.63 1201.39 901.14C1181.47 893.06 1162.57 881.34 1141.52 873.51C1129.73 869.12 1116.88 867.19 1104.67 864.3C1092.78 861.48 1075.9 868.25 1068.98 860.85C1068.6 860.47 1068.21 860.08 1067.83 859.7C1072.22 857.18 1077.55 854.57 1079.34 849.34C1085 840.12 1077.79 811.99 1085.1 799.83C1088.27 794.56 1097.26 791.9 1102.37 788.32C1112.08 781.52 1121.42 773.65 1131.16 766.44C1137.01 762.11 1142.39 755.7 1148.43 751.47C1174.73 733.06 1206.59 717.14 1225.58 691.6C1233.56 680.86 1237.98 668.85 1245.15 657.06C1250.85 647.69 1259.01 635.8 1262.42 624.82V608.7C1262.32 561.28 1190.91 570.41 1154.18 578.76C1141.43 581.66 1129.11 577.93 1120.79 584.52C1117.51 584.39 1115.87 584.06 1113.88 583.37C1113.44 537.97 1104.22 457.51 1125.39 430.23C1125.36 427.09 1125.35 424.95 1124.24 423.32C1113.84 415.48 1081.32 426.63 1070.12 419.87C1065.72 418.79 1063.22 414.72 1062.06 410.66C1061.13 409.48 1061.63 410.38 1060.91 408.36C1081.74 386.88 1102.56 365.65 1128.84 349.64C1155.58 333.36 1193.33 324.27 1212.9 301.28C1220.96 291.81 1252.38 262.88 1239.38 242.56C1239.16 229.78 1231.06 232.44 1222.11 228.74C1205.74 221.97 1186.68 215.04 1170.3 208.01C1167.41 196.79 1156.33 183.42 1159.94 167.71C1166.79 137.91 1175.07 111.73 1154.18 89.41C1149.02 83.89 1142.55 76.85 1128.85 80.2C1112.47 84.21 1091.08 96.35 1082.79 108.99C1073.95 122.49 1075.83 139.84 1071.28 158.5C1058.07 212.7 1066.23 270.1 1103.52 294.37C1102.13 305.91 1089.57 312.93 1082.79 319.7C1069.74 333.13 1056.69 346.57 1043.64 360C1036.07 365.71 1026.41 371.01 1020.61 378.42C1011.95 375.47 1006.96 368.13 997.58 365.75C994.42 349.16 999.27 333.03 1001.03 318.54C993.9 319.19 988.33 321.71 982.61 323.15H967.64C959.33 325.4 952.49 330.53 943.46 332.36C939.62 329.11 933.54 327.33 928.49 325.45C925.79 312.27 927.17 275.78 921.58 266.73C921.47 251.78 906.34 247.86 898.55 240.25C885.75 241.44 874.45 249.68 864.01 254.07C845.04 262.03 824.98 267.51 809.89 279.4C804.48 283.66 804.54 293.07 800.68 298.97C796.24 305.75 786.95 307.79 782.26 313.94C775.08 323.34 770.66 334.11 764.99 345.03C760.94 352.83 755.84 361.97 753.48 371.51C753.1 378.8 752.71 386.1 752.33 393.39C751.59 396.06 748.67 399.74 750.03 404.9C754.26 421.06 773.78 447.21 783.42 460.17C792.25 469 801.08 477.83 809.9 486.65H880.14C887.6 484.75 889.64 479.42 898.56 478.59C898.47 504.44 894.08 549.05 902.01 568.4C906.59 579.57 918.25 586.85 927.34 593.73C931.56 598.72 935.78 603.71 940.01 608.7C939.4 629.82 905.78 652.57 895.1 667.42C891.07 673.03 882.73 688.09 872.07 685.84C868.26 685.03 842.73 655.8 839.83 651.3H837.53C838.13 673.87 856.53 690.58 850.2 713.48C844.86 732.78 834.58 751.85 823.72 766.45C814.42 778.94 805.3 779.69 805.3 803.3V818.27C807.8 827.33 816.55 834.3 819.12 843.6C823.46 859.3 815.39 860.63 824.88 873.54C827.74 877.43 829.06 879.87 834.09 881.6C837.68 883.97 848.02 882.93 853.66 882.75C862.6 874.04 873.35 868.36 880.14 857.42C890.95 840.02 891.29 816.23 919.29 815.97C922.74 819.04 926.2 822.11 929.65 825.18C928.04 832.84 921.76 837.83 918.14 843.6C908.55 858.85 900.02 874.69 891.66 890.81C887.06 901.56 882.45 912.31 877.84 923.05C863.07 947.35 848.34 972.6 831.78 995.59C819.43 1012.74 800.75 1025.93 788.03 1042.8C775.29 1059.69 755.79 1086.56 738.52 1098.07C727.6 1105.34 710.05 1112.8 697.07 1116.49C682.22 1120.71 671.6 1119.87 660.22 1126.85C660.51 1138.52 662.52 1150.7 664.83 1161.39C666.56 1169.42 662.27 1181.84 665.98 1187.87C667.09 1197.88 676.54 1200.65 683.25 1205.14C690.24 1209.82 696.77 1215.38 706.28 1217.81C714.13 1219.81 721.96 1215.74 727.01 1214.36C748.47 1208.46 771.5 1205.97 788.04 1194.79C803.59 1184.26 811.49 1160.51 822.58 1145.28C826.99 1139.22 834.34 1134.29 838.7 1128.01C841.23 1124.37 840.75 1119.35 843.31 1115.34C852.3 1101.24 864.4 1087 873.25 1072.74C885.85 1052.42 890.71 1027.57 902.04 1005.96C907.08 996.34 916.15 989.35 921.61 980.63C932.57 963.15 937.43 940.08 945.79 920.76H952.7C963.76 970.76 968.43 1026.97 967.67 1087.72C963.87 1087.62 959.42 1087.45 957.31 1088.87C956.16 1089.25 955.01 1089.64 953.86 1090.02C957.85 1109.18 958.47 1134.03 958.47 1159.11V1193.65C962.78 1208.54 979.2 1219.15 986.1 1232.8H1006.83C1010.35 1231.99 1016.29 1228.63 1020.65 1229.35C1026.93 1230.39 1032.61 1235.06 1039.07 1236.26C1039.67 1227.98 1044.08 1218.05 1049.43 1214.38C1054.21 1211.1 1059.92 1211.07 1065.55 1208.62C1079.69 1202.48 1095.2 1193.51 1108.15 1185.59C1115.91 1180.85 1124.46 1178.57 1127.72 1169.47C1131.38 1163.39 1123.93 1137.96 1121.96 1130.32C1113.28 1096.68 1118.34 1051.63 1110.45 1017.48C1107.89 1006.38 1109.83 987.74 1104.69 979.48V971.42C1121.01 976.14 1134.01 990.07 1149.6 994.45C1162.65 994.83 1175.7 995.22 1188.75 995.6H1264.74C1282.69 995.6 1320.52 996.3 1330.37 988.69C1336.12 986.59 1341.26 975.23 1344.19 970.27C1346.49 969.89 1348.8 969.5 1351.1 969.12C1351.06 978.25 1351.25 986.62 1356.86 989.85C1364.55 994.27 1371.75 989.01 1374.13 999.06C1366.6 999.21 1364.76 1001.02 1360.31 1003.67C1360.54 1006.66 1360.82 1007.58 1361.46 1009.43C1369.11 1009.33 1369.88 1006.47 1374.13 1004.82H1390.25C1390.63 1003.67 1391.02 1002.52 1391.4 1001.37C1393.73 1006.74 1416.06 1006.11 1420.19 1002.52C1421.09 1001.81 1420.48 1002.48 1420.19 1001.37L1420.15 1001.3ZM1191.01 612.11C1190.16 614.78 1189.81 614.68 1188.71 616.72C1178.52 617.03 1168.81 617.8 1164.53 612.11H1191.01ZM1158.77 625.93C1165.66 625.78 1179.48 624.08 1184.1 627.08C1196.44 626.74 1193.22 627.72 1199.07 632.84C1198.69 633.99 1198.3 635.14 1197.92 636.29C1189.7 639.66 1140.76 643.59 1132.29 637.44H1129.99C1132.84 624.44 1148.6 631.68 1158.78 625.93H1158.77ZM1131.14 660.47C1137.73 657.77 1146.17 658.39 1151.87 654.71H1158.78C1159.16 655.09 1159.55 655.48 1159.93 655.86V663.92C1144.74 678.4 1126.17 691.68 1108.12 703.07C1101.49 707.26 1093.06 709.4 1087.39 714.58H1075.88C1082.42 682.21 1103.93 671.6 1131.15 660.46L1131.14 660.47Z" stroke="#575757" stroke-opacity="0.3" stroke-miterlimit="10"/>
<path fill-rule="evenodd" clip-rule="evenodd" d="M727.55 468.78C721.62 464.29 717.65 457.09 709.13 454.96C696.75 451.86 666.9 471.58 653.86 474.53C652.79 473.48 651.85 472.98 650.41 472.23C651.11 457.39 659.91 448.27 665.38 437.69C669.6 426.94 673.82 416.2 678.05 405.45C682.34 399.1 690.11 396.09 696.47 391.63C711.94 380.78 727.67 366.96 744.83 358.24C747.84 343.01 746.55 322.44 754.04 311.03V301.82C751.67 296.96 716.31 279.38 705.68 282.25C698.8 284.1 690.62 288.95 683.8 291.46C663.6 298.92 644.62 302.9 623.93 309.88C613.56 313.38 602.2 317.93 588.24 317.94C589.7 295.79 600.86 274.52 607.81 255.76C611.71 245.25 612.28 232.5 618.17 223.52C621.47 218.49 628.68 216.09 631.99 210.85C643.04 193.32 646.82 171.08 653.87 149.82C657.11 140.06 660.49 128.83 663.08 117.58V101.46C664.15 96.83 667.72 86.07 664.23 80.73C661.31 75.22 642.82 72.78 633.14 74.97C616.67 78.7 601.14 79.3 587.08 85.33C584.33 86.51 581.57 89.7 579.02 91.09C569.81 94.93 560.6 98.77 551.39 102.6C550.38 100.5 549.45 98.42 547.94 96.84C548.56 79.14 558.65 65.7 565.21 53.09C573.35 37.43 579.13 21.96 588.24 7.02998C595.91 -5.54002 605.34 -19.33 611.27 -33.27C618.23 -49.64 611.78 -84.67 620.48 -98.9C618.98 -106.57 589.26 -134.8 581.33 -136.9C574.83 -139.83 563.54 -131.56 558.3 -128.84C532.52 -115.47 521.52 -105.76 506.49 -81.63C490.77 -56.41 476.77 -28.04 462.74 -1.03001C458.52 8.55999 454.3 18.16 450.07 27.76C420.53 76.27 393.52 128 355.65 168.24C343.53 167.66 338.54 156.98 325.71 154.42C315.44 152.38 264.85 166.58 258.93 170.54C249.07 177.14 240.75 190.94 233.6 200.48C224 213.27 210.87 224.35 201.36 237.33C188.94 254.26 177.93 269.99 163.36 284.54C160.67 287.61 157.99 290.68 155.3 293.75C148.39 296.05 141.48 298.36 134.57 300.66C136.17 309.23 155.79 335.28 162.2 339.81C160.67 355.29 152.75 369 148.38 382.41C140.7 406 140.53 430.88 131.11 452.65C129.34 456.74 125.34 459.39 123.05 463.01C118.21 463.01 115.25 463.25 112.69 465.31H106.93C102.06 446.29 104.6 417.23 100.02 396.22C98.24 388.07 101.44 378.16 97.72 372.04C97.07 359.02 77.79 346.35 70.09 338.65C56.66 324.83 43.22 311.01 29.79 297.2C27.12 293.15 28.35 287.18 26.34 282.23C24.4 277.47 20.6 272.23 18.28 267.26C-0.830002 267.21 0.890004 283.98 -4.75 297.2C-9.08 307.34 -16 317.62 -22.02 327.14C-32.84 344.24 -45.21 354.09 -50.81 377.8C-54.49 393.39 -42.11 415.16 -38.14 425.01C-34.3 434.56 -32.9 445.75 -30.08 454.95C-22.74 478.91 -16.49 501.7 -9.34999 525.19C-5.37999 538.26 -5.57 550.51 -1.29 563.19C2.89 575.59 10.99 586.36 15.98 597.73C25.9 620.34 31.85 646.21 41.31 667.97C50.04 670.19 59.91 674.75 67.79 678.33C71.58 674.14 78.09 662.15 81.61 659.91C87.16 656.37 94.36 657.09 100.03 654.15C106.24 650.93 113 645.81 119.6 642.64C120.95 635.13 118.81 629.66 117.3 623.07C115.05 613.26 120.07 606.11 121.91 600.04C146.34 595.08 164.35 582.26 179.48 567.8C194.2 568.23 195.6 580.39 201.36 589.68C210.2 603.95 218.73 620.55 232.45 629.98C231.42 641.72 227.28 652.98 224.39 663.37C222.47 675.27 220.55 687.17 218.63 699.06C215.8 712.1 224.78 720.79 227.84 729C229.76 735.52 231.68 742.05 233.6 748.57C239.08 757.27 250.71 763.11 258.93 769.3C264.3 774.67 269.68 780.05 275.05 785.42C284.09 791.98 294.62 798.15 303.84 803.84C313.58 809.85 328.17 810.68 337.23 817.66C357.53 815.9 378.68 793.33 387.89 779.66C392.96 772.14 394.18 762.69 399.4 755.48C401.94 751.97 406.23 750.09 409.76 747.42C418.77 740.63 427.11 726.11 431.64 715.18C434.05 709.35 431.98 703.9 433.94 696.76C439.86 675.2 450.25 656.48 466.18 644.95C466.25 631.19 463.29 611.64 467.33 600.04C470.13 592.01 477.48 585.13 481.15 578.16C487.11 566.82 488.53 555.17 494.97 544.77C507.21 524.99 526.16 509.97 539.88 491.8C545.98 483.72 553.42 472.08 561.76 466.47C564.31 464.75 567.58 464.84 569.82 463.02C573.1 463.15 574.74 463.48 576.73 464.17C574.21 476.8 563.17 486.54 557.16 496.41C554.09 503.7 551.02 511 547.95 518.29C546.25 521.42 542.22 525.13 541.04 528.65C538.26 536.96 540.2 541.96 536.43 548.22C525.77 565.96 515.3 583.21 505.34 602.34C503.76 605.37 499.09 610.59 498.43 613.85C497 620.9 504.77 642.53 506.49 649.54C508.81 659.01 507.71 677.11 512.25 684.08C512.26 696.95 493.93 713.43 485.77 718.62C487.21 722.78 490.85 726.28 493.83 728.98C492.55 739.92 480.62 741.45 473.1 746.25C466.96 752.39 460.82 758.53 454.68 764.67C447.65 769.95 440.88 774.39 433.95 779.64C420.58 789.76 410.85 805.25 397.1 815.33C358.56 843.61 313.12 869.49 266.99 889.02C257.04 893.24 246.89 892.54 235.9 895.93C225.39 899.17 213.24 905.05 201.36 906.29C199.29 911.23 197.51 915.03 193.3 917.8V920.1C207.76 933.85 217.6 925.91 239.36 931.61C243.18 932.61 247.11 935.16 250.87 936.22V941.98C239.23 944.16 204.24 940.37 197.9 948.89C197.52 949.27 197.13 949.66 196.75 950.04H197.9C198.71 952.7 199.75 955.06 201.35 956.95C204.64 959.07 214.35 959.13 217.47 960.4C218.36 964.73 218.72 970.63 218.62 976.52C235.12 968.74 242.12 972.72 254.31 981.13C255.75 988.99 253.45 1006.53 257.76 1012.22C258.14 1012.99 258.53 1013.75 258.91 1014.52C296.9 1016.91 331.9 1000.34 360.24 988.04C371.53 983.14 383.45 978.85 390.18 969.62C397.06 960.17 400.71 949.49 407.45 939.68C412.14 932.86 431.57 914.99 438.54 909.74C474.63 882.57 507.79 852.52 546.78 827.99C565.08 816.47 583.97 805.73 603.2 795.75C612.93 790.7 624.17 788.16 633.14 781.93C638.45 778.24 640.88 770.05 644.65 764.66C655.96 748.52 666.73 732.15 678.04 715.15C692.28 693.75 708.64 673.44 724.1 652.97C732.57 641.76 746.63 634.24 754.04 621.88C757.4 616.28 757.41 609.93 759.8 603.46C765.99 586.7 771.28 567.6 775.92 549.34C776.3 540.13 776.69 530.92 777.07 521.71C771.85 502.65 742.33 479.92 727.56 468.74L727.55 468.78ZM372.91 232.73C372.88 224.94 368.6 215.48 369.46 212C371.9 202.08 383.69 179.71 390.19 172.85C389.73 170.48 389.9 170.63 389.04 169.4V168.25C380.32 171.31 374.1 183.69 368.31 190.13C365.65 189.76 365.45 189.6 363.7 188.98C364.12 166.36 374.3 157.57 383.27 144.07C394.83 126.7 404.72 109.27 416.66 92.26C423.05 83.15 434.81 73.21 438.54 62.32C440.53 61.58 439.67 62.09 440.84 61.17C445.16 61.59 445.12 62.06 447.75 63.47C446.04 80.81 432.64 91.87 424.72 103.77C419.41 111.74 416.04 119.65 410.9 127.95C407.64 133.21 403.49 137.04 402.84 145.22H406.29C415.76 131.24 436.78 111.33 441.98 94.56C446.66 94.5 451.57 94.65 454.65 95.71C452.34 124.87 438.07 148.97 428.17 171.7C417.22 196.85 408.96 223.27 393.63 244.24C387.11 249.61 380.58 254.99 374.06 260.36C367.28 270.12 371.8 278.09 368.3 291.45C366.92 296.72 363.52 300.77 361.39 305.27C360.24 305.65 359.09 306.04 357.94 306.42C356.06 303.18 355 300.88 351.03 299.51C352.39 281.27 361.22 239.88 372.91 232.73V232.73ZM501.87 312.18C497.59 322.37 500.53 340.91 494.96 350.18C484.77 367.13 469.61 379.87 458.11 395.09C454.24 400.21 450.49 406.25 445.44 410.06C432.22 420.04 416.22 431.45 406.29 444.6C386.44 470.89 363.85 494.53 344.11 520.59C339.97 526.05 332.86 528.51 327.99 533.26C322.09 533.5 315.71 534.02 313.02 530.96C311.06 526.58 315.17 513.72 316.47 507.93C319.93 492.54 314.55 476.79 318.77 463.02C320.7 456.74 324.22 447.51 327.98 442.29L339.49 430.78C342.04 424.57 338.86 416.36 340.64 408.9C344.45 392.9 347.67 369.36 348.7 352.48C358.98 356.03 380.93 374.8 386.7 383.57C412.56 383.76 421.12 367.58 433.91 354.78C450.87 337.82 470.32 321.27 484.57 301.81C491.18 292.79 495.15 282.03 501.84 273.02C509.46 262.76 521.02 256.47 527.17 244.23H529.47C527.28 270.29 510.61 291.27 501.84 312.16L501.87 312.18Z" stroke="#575757" stroke-opacity="0.3" stroke-miterlimit="10"/>
</svg>
