<svg width="76" height="71" viewBox="0 0 76 71" fill="none" xmlns="http://www.w3.org/2000/svg">
<path fill-rule="evenodd" clip-rule="evenodd" d="M40.1371 31.3367C39.8316 31.1047 39.6271 30.7325 39.1881 30.6224C38.5503 30.4622 37.0123 31.4814 36.3405 31.6339C36.2854 31.5796 36.2369 31.5538 36.1627 31.515C36.1988 30.748 36.6522 30.2767 36.934 29.7298C37.1514 29.1742 37.3689 28.6191 37.5868 28.0635C37.8078 27.7353 38.2082 27.5797 38.5358 27.3492C39.3329 26.7884 40.1433 26.0741 41.0274 25.6234C41.1825 24.8363 41.116 23.7731 41.5019 23.1834V22.7074C41.3798 22.4562 39.558 21.5475 39.0103 21.6959C38.6559 21.7915 38.2344 22.0422 37.8831 22.1719C36.8423 22.5575 35.8644 22.7632 34.7985 23.1239C34.2642 23.3048 33.6789 23.54 32.9597 23.5405C33.0349 22.3957 33.6099 21.2963 33.9679 20.3267C34.1689 19.7835 34.1982 19.1245 34.5017 18.6604C34.6717 18.4004 35.0432 18.2764 35.2137 18.0055C35.783 17.0995 35.9778 15.95 36.341 14.8512C36.5079 14.3467 36.6821 13.7663 36.8155 13.1849V12.3517C36.8707 12.1124 37.0546 11.5563 36.8748 11.2803C36.7243 10.9955 35.7717 10.8694 35.273 10.9826C34.4244 11.1753 33.6243 11.2064 32.8999 11.518C32.7582 11.579 32.616 11.7439 32.4846 11.8157C32.0101 12.0142 31.5356 12.2127 31.0611 12.4106C31.009 12.3021 30.9611 12.1946 30.8833 12.1129C30.9153 11.1981 31.4351 10.5034 31.7731 9.85168C32.1925 9.04229 32.4903 8.24272 32.9597 7.47106C33.3548 6.82138 33.8407 6.10864 34.1462 5.38815C34.5048 4.54206 34.1725 2.73153 34.6207 1.99605C34.5434 1.59962 33.0122 0.140546 32.6036 0.0320073C32.2687 -0.11943 31.6871 0.308006 31.4171 0.44859C30.0889 1.13962 29.5221 1.64149 28.7478 2.88865C27.9378 4.19215 27.2165 5.65846 26.4937 7.05448C26.2763 7.55014 26.0589 8.04632 25.8409 8.5425C24.319 11.0497 22.9274 13.7234 20.9762 15.8032C20.3518 15.7733 20.0947 15.2213 19.4337 15.0889C18.9046 14.9835 16.2981 15.7174 15.9931 15.9221C15.4851 16.2632 15.0564 16.9765 14.688 17.4696C14.1934 18.1306 13.517 18.7033 13.027 19.3742C12.3871 20.2492 11.8198 21.0622 11.0692 21.8142C10.9306 21.9729 10.7925 22.1316 10.6539 22.2903C10.2979 22.4091 9.94187 22.5285 9.58585 22.6474C9.66829 23.0903 10.6791 24.4367 11.0094 24.6709C10.9306 25.471 10.5225 26.1796 10.2974 26.8727C9.90168 28.0919 9.89292 29.3778 9.40759 30.503C9.3164 30.7144 9.11031 30.8514 8.99233 31.0385C8.74296 31.0385 8.59046 31.0509 8.45856 31.1574H8.1618C7.91089 30.1743 8.04175 28.6723 7.80578 27.5864C7.71408 27.1652 7.87894 26.653 7.68728 26.3367C7.65379 25.6637 6.66046 25.0089 6.26374 24.6109C5.57181 23.8966 4.87936 23.1823 4.18742 22.4686C4.04986 22.2592 4.11323 21.9507 4.00967 21.6948C3.90972 21.4488 3.71394 21.178 3.59441 20.9211C2.60983 20.9185 2.69845 21.7853 2.40787 22.4686C2.18478 22.9927 1.82825 23.524 1.51809 24.016C0.960626 24.8998 0.323304 25.4089 0.0347827 26.6344C-0.154817 27.4402 0.483021 28.5654 0.687561 29.0745C0.885404 29.5681 0.957534 30.1464 1.10283 30.6219C1.48099 31.8603 1.803 33.0382 2.17087 34.2523C2.37541 34.9278 2.36562 35.561 2.58613 36.2163C2.80149 36.8572 3.21882 37.4139 3.47591 38.0015C3.987 39.1701 4.29356 40.5072 4.78095 41.6319C5.23073 41.7466 5.73925 41.9823 6.14524 42.1674C6.34051 41.9508 6.67591 41.3311 6.85727 41.2153C7.14322 41.0323 7.51417 41.0696 7.8063 40.9176C8.12625 40.7512 8.47453 40.4866 8.81458 40.3227C8.88413 39.9346 8.77387 39.6518 8.69608 39.3112C8.58015 38.8042 8.83879 38.4347 8.93359 38.1209C10.1923 37.8646 11.1202 37.202 11.8997 36.4546C12.6581 36.4768 12.7302 37.1053 13.027 37.5855C13.4824 38.323 13.9219 39.181 14.6288 39.6684C14.5757 40.2752 14.3624 40.8571 14.2135 41.3941C14.1146 42.0092 14.0157 42.6243 13.9168 43.2388C13.771 43.9128 14.2336 44.3619 14.3913 44.7862C14.4902 45.1232 14.5891 45.4607 14.688 45.7977C14.9704 46.2474 15.5696 46.5492 15.9931 46.8692C16.2697 47.1467 16.5469 47.4248 16.8236 47.7023C17.2894 48.0414 17.8319 48.3603 18.3069 48.6544C18.8087 48.965 19.5604 49.0079 20.0272 49.3687C21.0731 49.2777 22.1628 48.1112 22.6373 47.4046C22.8985 47.0159 22.9614 46.5275 23.2303 46.1549C23.3612 45.9735 23.5822 45.8763 23.7641 45.7383C24.2283 45.3873 24.658 44.6369 24.8914 44.072C25.0155 43.7706 24.9089 43.4889 25.0099 43.1199C25.3149 42.0056 25.8502 41.038 26.6709 40.4421C26.6745 39.7309 26.522 38.7205 26.7302 38.1209C26.8744 37.7059 27.2531 37.3503 27.4422 36.99C27.7493 36.4039 27.8224 35.8018 28.1542 35.2643C28.7849 34.2419 29.7612 33.4656 30.4681 32.5265C30.7823 32.1089 31.1657 31.5073 31.5954 31.2173C31.7267 31.1284 31.8952 31.1331 32.0106 31.039C32.1796 31.0457 32.2641 31.0628 32.3666 31.0984C32.2368 31.7512 31.668 32.2546 31.3584 32.7648C31.2002 33.1416 31.042 33.5189 30.8838 33.8957C30.7963 34.0574 30.5886 34.2492 30.5278 34.4311C30.3846 34.8606 30.4846 35.119 30.2903 35.4426C29.7411 36.3595 29.2017 37.2511 28.6885 38.2398C28.6071 38.3964 28.3665 38.6662 28.3325 38.8347C28.2588 39.1991 28.6591 40.317 28.7478 40.6793C28.8673 41.1688 28.8106 42.1043 29.0445 42.4646C29.045 43.1297 28.1007 43.9815 27.6802 44.2498C27.7544 44.4648 27.942 44.6457 28.0955 44.7852C28.0296 45.3507 27.4149 45.4297 27.0275 45.6778C26.7111 45.9952 26.3948 46.3125 26.0784 46.6299C25.7162 46.9028 25.3674 47.1322 25.0104 47.4036C24.3215 47.9266 23.8202 48.7272 23.1118 49.2482C21.1262 50.7099 18.785 52.0475 16.4083 53.0569C15.8957 53.275 15.3728 53.2389 14.8065 53.4141C14.265 53.5815 13.6391 53.8854 13.027 53.9495C12.9203 54.2048 12.8286 54.4013 12.6117 54.5444V54.6633C13.3567 55.374 13.8637 54.9636 14.9848 55.2582C15.1816 55.3099 15.3841 55.4417 15.5778 55.4965V55.7942C14.9781 55.9068 13.1754 55.711 12.8487 56.1513C12.8291 56.171 12.809 56.1911 12.7895 56.2108H12.8487C12.8904 56.3482 12.944 56.4702 13.0265 56.5679C13.196 56.6775 13.6962 56.6806 13.857 56.7462C13.9028 56.97 13.9214 57.275 13.9162 57.5794C14.7663 57.1773 15.127 57.383 15.755 57.8176C15.8292 58.2239 15.7107 59.1304 15.9328 59.4245C15.9524 59.4643 15.9725 59.5036 15.992 59.5434C17.9494 59.6669 19.7526 58.8105 21.2127 58.1748C21.7944 57.9215 22.4085 57.6998 22.7553 57.2227C23.1098 56.7343 23.2978 56.1823 23.6451 55.6753C23.8867 55.3228 24.8878 54.3992 25.2469 54.1278C27.1063 52.7235 28.8147 51.1704 30.8236 49.9026C31.7664 49.3072 32.7397 48.7521 33.7304 48.2362C34.2317 47.9752 34.8108 47.8439 35.273 47.5219C35.5466 47.3312 35.6717 46.9079 35.866 46.6293C36.4487 45.7951 37.0036 44.9491 37.5863 44.0704C38.32 42.9643 39.1628 41.9146 39.9594 40.8566C40.3958 40.2772 41.1202 39.8886 41.5019 39.2497C41.675 38.9603 41.6756 38.6321 41.7987 38.2977C42.1176 37.4314 42.3902 36.4443 42.6292 35.5005C42.6488 35.0245 42.6689 34.5484 42.6885 34.0724C42.4195 33.0873 40.8986 31.9125 40.1376 31.3347L40.1371 31.3367ZM21.8655 19.1364C21.864 18.7338 21.6434 18.2448 21.6878 18.065C21.8135 17.5523 22.4209 16.3961 22.7558 16.0415C22.7321 15.919 22.7409 15.9268 22.6966 15.8632V15.8038C22.2473 15.9619 21.9268 16.6018 21.6285 16.9346C21.4915 16.9155 21.4812 16.9072 21.391 16.8752C21.4126 15.7061 21.9371 15.2518 22.3993 14.554C22.9949 13.6562 23.5044 12.7554 24.1196 11.8762C24.4488 11.4053 25.0547 10.8916 25.2469 10.3287C25.3494 10.2905 25.3051 10.3169 25.3654 10.2693C25.5879 10.291 25.5859 10.3153 25.7214 10.3882C25.6333 11.2844 24.9429 11.856 24.5348 12.4711C24.2613 12.883 24.0876 13.2919 23.8228 13.7208C23.6549 13.9927 23.441 14.1907 23.4075 14.6134H23.5853C24.0732 13.8909 25.1562 12.8618 25.4241 11.9951C25.6652 11.992 25.9182 11.9997 26.0769 12.0545C25.9579 13.5617 25.2227 14.8073 24.7126 15.9821C24.1484 17.282 23.7229 18.6475 22.933 19.7313C22.5971 20.0089 22.2607 20.2869 21.9248 20.5645C21.5754 21.0689 21.8083 21.4809 21.628 22.1714C21.5569 22.4438 21.3817 22.6531 21.272 22.8857C21.2127 22.9053 21.1535 22.9255 21.0942 22.9451C20.9974 22.7776 20.9428 22.6588 20.7382 22.588C20.8083 21.6452 21.2632 19.506 21.8655 19.1364ZM28.5097 23.2428C28.2892 23.7695 28.4407 24.7277 28.1537 25.2068C27.6287 26.0829 26.8476 26.7414 26.2551 27.528C26.0558 27.7927 25.8626 28.1048 25.6024 28.3018C24.9213 28.8176 24.0969 29.4073 23.5853 30.087C22.5626 31.4458 21.3987 32.6676 20.3817 34.0145C20.1684 34.2967 19.8021 34.4239 19.5512 34.6694C19.2472 34.6818 18.9185 34.7087 18.7799 34.5505C18.6789 34.3241 18.8907 33.6595 18.9576 33.3602C19.1359 32.5648 18.8587 31.7507 19.0761 31.039C19.1756 30.7144 19.3569 30.2374 19.5506 29.9676L20.1437 29.3727C20.275 29.0517 20.1112 28.6274 20.2029 28.2418C20.3992 27.4148 20.5651 26.1982 20.6182 25.3257C21.1478 25.5092 22.2787 26.4793 22.576 26.9326C23.9083 26.9424 24.3494 26.1062 25.0083 25.4446C25.8821 24.568 26.8842 23.7126 27.6184 22.7068C27.959 22.2406 28.1635 21.6845 28.5082 21.2188C28.9008 20.6885 29.4964 20.3634 29.8132 19.7308H29.9317C29.8189 21.0777 28.96 22.1621 28.5082 23.2418L28.5097 23.2428Z" fill="#CDA488"/>
<path fill-rule="evenodd" clip-rule="evenodd" d="M75.821 58.8602C75.5691 58.4818 74.8586 58.2461 74.4567 58.027C74.4521 57.6414 74.4176 57.1261 74.516 56.8367C75.2187 56.8698 75.9101 56.9933 75.9993 56.3607H74.0415C74.1254 56.1141 74.3717 55.8939 74.5752 55.7658C74.5536 55.5425 74.5294 55.5445 74.4567 55.4086C73.3794 55.4014 72.6689 55.1409 71.8466 54.9326C71.451 54.913 71.0558 54.8928 70.6601 54.8732C70.1243 54.7414 69.4942 54.5868 68.9398 54.4566C68.3267 54.4168 67.7136 54.3775 67.101 54.3377C66.5935 54.2002 66.0051 54.0054 65.4992 53.8617C65.1457 53.7614 64.867 53.8121 64.5502 53.6834C63.5238 53.2657 62.5501 52.66 61.4656 52.2553C60.8581 52.0284 60.1961 51.9286 59.567 51.7793C58.9544 51.6335 58.0847 51.9834 57.7282 51.601C57.7086 51.5813 57.6885 51.5612 57.6689 51.5415C57.8951 51.4113 58.1697 51.2764 58.2619 51.0061C58.5536 50.5295 58.1821 49.0756 58.5587 48.4471C58.722 48.1747 59.1852 48.0373 59.4485 47.8522C59.9488 47.5008 60.43 47.094 60.9318 46.7214C61.2332 46.4976 61.5104 46.1663 61.8216 45.9476C63.1766 44.9961 64.8181 44.1733 65.7965 42.8532C66.2076 42.2981 66.4353 41.6774 66.8047 41.068C67.0984 40.5837 67.5188 39.9692 67.6945 39.4017V38.5685C67.6894 36.1176 64.0102 36.5895 62.1178 37.0211C61.4609 37.171 60.8262 36.9782 60.3975 37.3188C60.2285 37.3121 60.144 37.295 60.0415 37.2593C60.0188 34.9128 59.5438 30.7542 60.6345 29.3443C60.633 29.182 60.6324 29.0714 60.5753 28.9871C60.0394 28.5819 58.364 29.1582 57.7869 28.8088C57.5602 28.753 57.4314 28.5426 57.3717 28.3328C57.3237 28.2718 57.3495 28.3183 57.3124 28.2139C58.3856 27.1037 59.4583 26.0064 60.8123 25.179C62.1899 24.3375 64.1349 23.8677 65.1432 22.6795C65.5584 22.19 67.1772 20.6947 66.5075 19.6445C66.4961 18.984 66.0788 19.1214 65.6177 18.9302C64.7743 18.5803 63.7923 18.2221 62.9483 17.8588C62.7994 17.2789 62.2286 16.5878 62.4146 15.7759C62.7675 14.2356 63.1941 12.8825 62.1178 11.7289C61.852 11.4436 61.5186 11.0797 60.8128 11.2529C59.9688 11.4601 58.8668 12.0876 58.4397 12.7409C57.9842 13.4387 58.0811 14.3354 57.8467 15.2998C57.1661 18.1012 57.5865 21.0679 59.5077 22.3223C59.4361 22.9188 58.789 23.2816 58.4397 23.6315C57.7673 24.3256 57.095 25.0203 56.4226 25.7144C56.0326 26.0095 55.5349 26.2835 55.2361 26.6665C54.7899 26.514 54.5328 26.1346 54.0495 26.0116C53.8867 25.1541 54.1366 24.3205 54.2273 23.5715C53.8599 23.6051 53.573 23.7354 53.2783 23.8098H52.507C52.0788 23.9261 51.7264 24.1912 51.2612 24.2858C51.0633 24.1179 50.7501 24.0259 50.4899 23.9287C50.3508 23.2475 50.4219 21.3615 50.1339 20.8937C50.1282 20.121 49.3487 19.9184 48.9474 19.5251C48.2879 19.5866 47.7057 20.0125 47.1678 20.2394C46.1904 20.6508 45.1569 20.934 44.3795 21.5486C44.1007 21.7688 44.1038 22.2551 43.9049 22.5601C43.6762 22.9105 43.1975 23.0159 42.9559 23.3338C42.586 23.8196 42.3583 24.3763 42.0661 24.9407C41.8575 25.3438 41.5947 25.8162 41.4731 26.3093C41.4535 26.6861 41.4334 27.0634 41.4139 27.4402C41.3757 27.5782 41.2253 27.7684 41.2954 28.0351C41.5133 28.8703 42.519 30.2219 43.0157 30.8917C43.4706 31.3481 43.9255 31.8045 44.38 32.2603H47.9988C48.3832 32.1621 48.4883 31.8867 48.9479 31.8438C48.9432 33.1798 48.7171 35.4855 49.1256 36.4856C49.3616 37.0629 49.9623 37.4392 50.4307 37.7948C50.6481 38.0527 50.8655 38.3106 51.0834 38.5685C51.052 39.6601 49.3199 40.836 48.7696 41.6035C48.562 41.8934 48.1323 42.6718 47.5831 42.5555C47.3868 42.5137 46.0714 41.0029 45.922 40.7703H45.8035C45.8344 41.9369 46.7824 42.8005 46.4563 43.9841C46.1812 44.9816 45.6515 45.9673 45.092 46.7219C44.6128 47.3674 44.143 47.4062 44.143 48.6265V49.4002C44.2718 49.8685 44.7226 50.2287 44.855 50.7094C45.0786 51.5208 44.6628 51.5896 45.1518 52.2568C45.2991 52.4579 45.3671 52.584 45.6263 52.6734C45.8112 52.7959 46.344 52.7422 46.6345 52.7329C47.0952 52.2827 47.649 51.9891 47.9988 51.4237C48.5558 50.5244 48.5733 49.2948 50.0159 49.2813C50.1937 49.44 50.3719 49.5987 50.5497 49.7574C50.4667 50.1533 50.1432 50.4112 49.9567 50.7094C49.4626 51.4976 49.0231 52.3163 48.5924 53.1495C48.3554 53.7051 48.1179 54.2607 47.8803 54.8158C47.1194 56.0717 46.3605 57.3768 45.5073 58.565C44.871 59.4514 43.9085 60.1332 43.2532 61.0051C42.5968 61.8781 41.5921 63.2668 40.7024 63.8617C40.1397 64.2375 39.2355 64.6231 38.5668 64.8138C37.8017 65.0319 37.2545 64.9885 36.6682 65.3492C36.6832 65.9524 36.7867 66.5819 36.9057 67.1344C36.9949 67.5495 36.7738 68.1914 36.965 68.5031C37.0222 69.0204 37.509 69.1636 37.8548 69.3957C38.2149 69.6376 38.5513 69.9249 39.0413 70.0505C39.4457 70.1539 39.8492 69.9435 40.1093 69.8722C41.215 69.5673 42.4015 69.4386 43.2537 68.8607C44.0549 68.3165 44.4619 67.089 45.0333 66.3018C45.2605 65.9886 45.6392 65.7338 45.8638 65.4092C45.9941 65.2211 45.9694 64.9616 46.1013 64.7543C46.5645 64.0256 47.1879 63.2896 47.6439 62.5525C48.293 61.5023 48.5434 60.2179 49.1272 59.101C49.3868 58.6038 49.8541 58.2425 50.1354 57.7918C50.7001 56.8884 50.9505 55.696 51.3812 54.6974H51.7372C52.3071 57.2817 52.5477 60.1869 52.5085 63.3268C52.3127 63.3216 52.0835 63.3128 51.9748 63.3862C51.9155 63.4059 51.8563 63.426 51.797 63.4457C52.0026 64.436 52.0345 65.7203 52.0345 67.0166V68.8018C52.2566 69.5714 53.1026 70.1198 53.4581 70.8253H54.5261C54.7075 70.7834 55.0135 70.6098 55.2381 70.647C55.5617 70.7007 55.8543 70.9421 56.1872 71.0041C56.2181 70.5762 56.4453 70.0629 56.7209 69.8732C56.9672 69.7037 57.2614 69.7022 57.5515 69.5755C58.28 69.2582 59.0791 68.7946 59.7463 68.3852C60.1461 68.1402 60.5866 68.0224 60.7546 67.5521C60.9431 67.2378 60.5593 65.9235 60.4578 65.5286C60.0106 63.7899 60.2713 61.4615 59.8648 59.6964C59.7329 59.1227 59.8328 58.1593 59.568 57.7324V57.3158C60.4088 57.5598 61.0786 58.2797 61.8818 58.5061C62.5542 58.5257 63.2266 58.5459 63.8989 58.5655H67.814C68.7389 58.5655 70.6879 58.6017 71.1954 58.2084C71.4917 58.0999 71.7565 57.5127 71.9074 57.2564C72.0259 57.2367 72.1449 57.2166 72.2634 57.1969C72.2614 57.6688 72.2712 58.1014 72.5602 58.2684C72.9564 58.4968 73.3274 58.2249 73.45 58.7444C73.062 58.7521 72.9672 58.8457 72.738 58.9827C72.7498 59.1372 72.7642 59.1847 72.7972 59.2804C73.1913 59.2752 73.231 59.1274 73.45 59.0421H74.2805C74.3001 58.9826 74.3202 58.9232 74.3398 58.8638C74.4598 59.1413 75.6103 59.1088 75.8231 58.9232C75.8694 58.8865 75.838 58.9211 75.8231 58.8638L75.821 58.8602ZM64.0154 38.7448C63.9716 38.8828 63.9535 38.8776 63.8969 38.983C63.3718 38.9991 62.8716 39.0389 62.6511 38.7448H64.0154ZM62.3543 39.4591C62.7093 39.4513 63.4213 39.3635 63.6593 39.5185C64.2951 39.5009 64.1292 39.5516 64.4306 39.8162C64.411 39.8757 64.391 39.9351 64.3714 39.9945C63.9479 40.1687 61.4264 40.3718 60.99 40.054H60.8715C61.0183 39.3821 61.8303 39.7563 62.3548 39.4591H62.3543ZM60.9308 41.2443C61.2703 41.1047 61.7051 41.1368 61.9988 40.9466H62.3548C62.3744 40.9662 62.3945 40.9864 62.4141 41.006V41.4226C61.6315 42.171 60.6747 42.8574 59.7447 43.4461C59.4031 43.6626 58.9688 43.7732 58.6767 44.041H58.0837C58.4206 42.3679 59.5289 41.8195 60.9313 41.2438L60.9308 41.2443Z" fill="#CDA488"/>
</svg>
