<svg width="1280" height="732" viewBox="0 0 1280 732" fill="none" xmlns="http://www.w3.org/2000/svg">
<path fill-rule="evenodd" clip-rule="evenodd" d="M1420.15 827.3C1415.26 819.98 1401.47 815.42 1393.67 811.18C1393.58 803.72 1392.91 793.75 1394.82 788.15C1408.46 788.79 1421.88 791.18 1423.61 778.94H1385.61C1387.24 774.17 1392.02 769.91 1395.97 767.43C1395.55 763.11 1395.08 763.15 1393.67 760.52C1372.76 760.38 1358.97 755.34 1343.01 751.31C1335.33 750.93 1327.66 750.54 1319.98 750.16C1309.58 747.61 1297.35 744.62 1286.59 742.1C1274.69 741.33 1262.79 740.57 1250.9 739.8C1241.05 737.14 1229.63 733.37 1219.81 730.59C1212.95 728.65 1207.54 729.63 1201.39 727.14C1181.47 719.06 1162.57 707.34 1141.52 699.51C1129.73 695.12 1116.88 693.19 1104.67 690.3C1092.78 687.48 1075.9 694.25 1068.98 686.85C1068.6 686.47 1068.21 686.08 1067.83 685.7C1072.22 683.18 1077.55 680.57 1079.34 675.34C1085 666.12 1077.79 637.99 1085.1 625.83C1088.27 620.56 1097.26 617.9 1102.37 614.32C1112.08 607.52 1121.42 599.65 1131.16 592.44C1137.01 588.11 1142.39 581.7 1148.43 577.47C1174.73 559.06 1206.59 543.14 1225.58 517.6C1233.56 506.86 1237.98 494.85 1245.15 483.06C1250.85 473.69 1259.01 461.8 1262.42 450.82V434.7C1262.32 387.28 1190.91 396.41 1154.18 404.76C1141.43 407.66 1129.11 403.93 1120.79 410.52C1117.51 410.39 1115.87 410.06 1113.88 409.37C1113.44 363.97 1104.22 283.51 1125.39 256.23C1125.36 253.09 1125.35 250.95 1124.24 249.32C1113.84 241.48 1081.32 252.63 1070.12 245.87C1065.72 244.79 1063.22 240.72 1062.06 236.66C1061.13 235.48 1061.63 236.38 1060.91 234.36C1081.74 212.88 1102.56 191.65 1128.84 175.64C1155.58 159.36 1193.33 150.27 1212.9 127.28C1220.96 117.81 1252.38 88.88 1239.38 68.56C1239.16 55.78 1231.06 58.44 1222.11 54.74C1205.74 47.97 1186.68 41.04 1170.3 34.01C1167.41 22.79 1156.33 9.42 1159.94 -6.29C1166.79 -36.09 1175.07 -62.27 1154.18 -84.59C1149.02 -90.11 1142.55 -97.15 1128.85 -93.8C1112.47 -89.79 1091.08 -77.65 1082.79 -65.01C1073.95 -51.51 1075.83 -34.16 1071.28 -15.5C1058.07 38.7 1066.23 96.1 1103.52 120.37C1102.13 131.91 1089.57 138.93 1082.79 145.7C1069.74 159.13 1056.69 172.57 1043.64 186C1036.07 191.71 1026.41 197.01 1020.61 204.42C1011.95 201.47 1006.96 194.13 997.58 191.75C994.42 175.16 999.27 159.03 1001.03 144.54C993.9 145.19 988.33 147.71 982.61 149.15H967.64C959.33 151.4 952.49 156.53 943.46 158.36C939.62 155.11 933.54 153.33 928.49 151.45C925.79 138.27 927.17 101.78 921.58 92.73C921.47 77.78 906.34 73.86 898.55 66.25C885.75 67.44 874.45 75.68 864.01 80.07C845.04 88.03 824.98 93.51 809.89 105.4C804.48 109.66 804.54 119.07 800.68 124.97C796.24 131.75 786.95 133.79 782.26 139.94C775.08 149.34 770.66 160.11 764.99 171.03C760.94 178.83 755.84 187.97 753.48 197.51C753.1 204.8 752.71 212.1 752.33 219.39C751.59 222.06 748.67 225.74 750.03 230.9C754.26 247.06 773.78 273.21 783.42 286.17C792.25 295 801.08 303.83 809.9 312.65H880.14C887.6 310.75 889.64 305.42 898.56 304.59C898.47 330.44 894.08 375.05 902.01 394.4C906.59 405.57 918.25 412.85 927.34 419.73C931.56 424.72 935.78 429.71 940.01 434.7C939.4 455.82 905.78 478.57 895.1 493.42C891.07 499.03 882.73 514.09 872.07 511.84C868.26 511.03 842.73 481.8 839.83 477.3H837.53C838.13 499.87 856.53 516.58 850.2 539.48C844.86 558.78 834.58 577.85 823.72 592.45C814.42 604.94 805.3 605.69 805.3 629.3V644.27C807.8 653.33 816.55 660.3 819.12 669.6C823.46 685.3 815.39 686.63 824.88 699.54C827.74 703.43 829.06 705.87 834.09 707.6C837.68 709.97 848.02 708.93 853.66 708.75C862.6 700.04 873.35 694.36 880.14 683.42C890.95 666.02 891.29 642.23 919.29 641.97C922.74 645.04 926.2 648.11 929.65 651.18C928.04 658.84 921.76 663.83 918.14 669.6C908.55 684.85 900.02 700.69 891.66 716.81C887.06 727.56 882.45 738.31 877.84 749.05C863.07 773.35 848.34 798.6 831.78 821.59C819.43 838.74 800.75 851.93 788.03 868.8C775.29 885.69 755.79 912.56 738.52 924.07C727.6 931.34 710.05 938.8 697.07 942.49C682.22 946.71 671.6 945.87 660.22 952.85C660.51 964.52 662.52 976.7 664.83 987.39C666.56 995.42 662.27 1007.84 665.98 1013.87C667.09 1023.88 676.54 1026.65 683.25 1031.14C690.24 1035.82 696.77 1041.38 706.28 1043.81C714.13 1045.81 721.96 1041.74 727.01 1040.36C748.47 1034.46 771.5 1031.97 788.04 1020.79C803.59 1010.26 811.49 986.51 822.58 971.28C826.99 965.22 834.34 960.29 838.7 954.01C841.23 950.37 840.75 945.35 843.31 941.34C852.3 927.24 864.4 913 873.25 898.74C885.85 878.42 890.71 853.57 902.04 831.96C907.08 822.34 916.15 815.35 921.61 806.63C932.57 789.15 937.43 766.08 945.79 746.76H952.7C963.76 796.76 968.43 852.97 967.67 913.72C963.87 913.62 959.42 913.45 957.31 914.87C956.16 915.25 955.01 915.64 953.86 916.02C957.85 935.18 958.47 960.03 958.47 985.11V1019.65C962.78 1034.54 979.2 1045.15 986.1 1058.8H1006.83C1010.35 1057.99 1016.29 1054.63 1020.65 1055.35C1026.93 1056.39 1032.61 1061.06 1039.07 1062.26C1039.67 1053.98 1044.08 1044.05 1049.43 1040.38C1054.21 1037.1 1059.92 1037.07 1065.55 1034.62C1079.69 1028.48 1095.2 1019.51 1108.15 1011.59C1115.91 1006.85 1124.46 1004.57 1127.72 995.47C1131.38 989.39 1123.93 963.96 1121.96 956.32C1113.28 922.68 1118.34 877.63 1110.45 843.48C1107.89 832.38 1109.83 813.74 1104.69 805.48V797.42C1121.01 802.14 1134.01 816.07 1149.6 820.45C1162.65 820.83 1175.7 821.22 1188.75 821.6H1264.74C1282.69 821.6 1320.52 822.3 1330.37 814.69C1336.12 812.59 1341.26 801.23 1344.19 796.27C1346.49 795.89 1348.8 795.5 1351.1 795.12C1351.06 804.25 1351.25 812.62 1356.86 815.85C1364.55 820.27 1371.75 815.01 1374.13 825.06C1366.6 825.21 1364.76 827.02 1360.31 829.67C1360.54 832.66 1360.82 833.58 1361.46 835.43C1369.11 835.33 1369.88 832.47 1374.13 830.82H1390.25C1390.63 829.67 1391.02 828.52 1391.4 827.37C1393.73 832.74 1416.06 832.11 1420.19 828.52C1421.09 827.81 1420.48 828.48 1420.19 827.37L1420.15 827.3ZM1191.01 438.11C1190.16 440.78 1189.81 440.68 1188.71 442.72C1178.52 443.03 1168.81 443.8 1164.53 438.11H1191.01ZM1158.77 451.93C1165.66 451.78 1179.48 450.08 1184.1 453.08C1196.44 452.74 1193.22 453.72 1199.07 458.84C1198.69 459.99 1198.3 461.14 1197.92 462.29C1189.7 465.66 1140.76 469.59 1132.29 463.44H1129.99C1132.84 450.44 1148.6 457.68 1158.78 451.93H1158.77ZM1131.14 486.47C1137.73 483.77 1146.17 484.39 1151.87 480.71H1158.78C1159.16 481.09 1159.55 481.48 1159.93 481.86V489.92C1144.74 504.4 1126.17 517.68 1108.12 529.07C1101.49 533.26 1093.06 535.4 1087.39 540.58H1075.88C1082.42 508.21 1103.93 497.6 1131.15 486.46L1131.14 486.47Z" stroke="white" stroke-opacity="0.3" stroke-miterlimit="10"/>
<path fill-rule="evenodd" clip-rule="evenodd" d="M727.55 294.78C721.62 290.29 717.65 283.09 709.13 280.96C696.75 277.86 666.9 297.58 653.86 300.53C652.79 299.48 651.85 298.98 650.41 298.23C651.11 283.39 659.91 274.27 665.38 263.69C669.6 252.94 673.82 242.2 678.05 231.45C682.34 225.1 690.11 222.09 696.47 217.63C711.94 206.78 727.67 192.96 744.83 184.24C747.84 169.01 746.55 148.44 754.04 137.03V127.82C751.67 122.96 716.31 105.38 705.68 108.25C698.8 110.1 690.62 114.95 683.8 117.46C663.6 124.92 644.62 128.9 623.93 135.88C613.56 139.38 602.2 143.93 588.24 143.94C589.7 121.79 600.86 100.52 607.81 81.76C611.71 71.25 612.28 58.5 618.17 49.52C621.47 44.49 628.68 42.09 631.99 36.85C643.04 19.32 646.82 -2.91999 653.87 -24.18C657.11 -33.94 660.49 -45.17 663.08 -56.42V-72.54C664.15 -77.17 667.72 -87.93 664.23 -93.27C661.31 -98.78 642.82 -101.22 633.14 -99.03C616.67 -95.3 601.14 -94.7 587.08 -88.67C584.33 -87.49 581.57 -84.3 579.02 -82.91C569.81 -79.07 560.6 -75.23 551.39 -71.4C550.38 -73.5 549.45 -75.58 547.94 -77.16C548.56 -94.86 558.65 -108.3 565.21 -120.91C573.35 -136.57 579.13 -152.04 588.24 -166.97C595.91 -179.54 605.34 -193.33 611.27 -207.27C618.23 -223.64 611.78 -258.67 620.48 -272.9C618.98 -280.57 589.26 -308.8 581.33 -310.9C574.83 -313.83 563.54 -305.56 558.3 -302.84C532.52 -289.47 521.52 -279.76 506.49 -255.63C490.77 -230.41 476.77 -202.04 462.74 -175.03C458.52 -165.44 454.3 -155.84 450.07 -146.24C420.53 -97.73 393.52 -46 355.65 -5.76001C343.53 -6.34001 338.54 -17.02 325.71 -19.58C315.44 -21.62 264.85 -7.41999 258.93 -3.45999C249.07 3.14001 240.75 16.94 233.6 26.48C224 39.27 210.87 50.35 201.36 63.33C188.94 80.26 177.93 95.99 163.36 110.54C160.67 113.61 157.99 116.68 155.3 119.75C148.39 122.05 141.48 124.36 134.57 126.66C136.17 135.23 155.79 161.28 162.2 165.81C160.67 181.29 152.75 195 148.38 208.41C140.7 232 140.53 256.88 131.11 278.65C129.34 282.74 125.34 285.39 123.05 289.01C118.21 289.01 115.25 289.25 112.69 291.31H106.93C102.06 272.29 104.6 243.23 100.02 222.22C98.24 214.07 101.44 204.16 97.72 198.04C97.07 185.02 77.79 172.35 70.09 164.65C56.66 150.83 43.22 137.01 29.79 123.2C27.12 119.15 28.35 113.18 26.34 108.23C24.4 103.47 20.6 98.23 18.28 93.26C-0.830002 93.21 0.890004 109.98 -4.75 123.2C-9.08 133.34 -16 143.62 -22.02 153.14C-32.84 170.24 -45.21 180.09 -50.81 203.8C-54.49 219.39 -42.11 241.16 -38.14 251.01C-34.3 260.56 -32.9 271.75 -30.08 280.95C-22.74 304.91 -16.49 327.7 -9.34999 351.19C-5.37999 364.26 -5.57 376.51 -1.29 389.19C2.89 401.59 10.99 412.36 15.98 423.73C25.9 446.34 31.85 472.21 41.31 493.97C50.04 496.19 59.91 500.75 67.79 504.33C71.58 500.14 78.09 488.15 81.61 485.91C87.16 482.37 94.36 483.09 100.03 480.15C106.24 476.93 113 471.81 119.6 468.64C120.95 461.13 118.81 455.66 117.3 449.07C115.05 439.26 120.07 432.11 121.91 426.04C146.34 421.08 164.35 408.26 179.48 393.8C194.2 394.23 195.6 406.39 201.36 415.68C210.2 429.95 218.73 446.55 232.45 455.98C231.42 467.72 227.28 478.98 224.39 489.37C222.47 501.27 220.55 513.17 218.63 525.06C215.8 538.1 224.78 546.79 227.84 555C229.76 561.52 231.68 568.05 233.6 574.57C239.08 583.27 250.71 589.11 258.93 595.3C264.3 600.67 269.68 606.05 275.05 611.42C284.09 617.98 294.62 624.15 303.84 629.84C313.58 635.85 328.17 636.68 337.23 643.66C357.53 641.9 378.68 619.33 387.89 605.66C392.96 598.14 394.18 588.69 399.4 581.48C401.94 577.97 406.23 576.09 409.76 573.42C418.77 566.63 427.11 552.11 431.64 541.18C434.05 535.35 431.98 529.9 433.94 522.76C439.86 501.2 450.25 482.48 466.18 470.95C466.25 457.19 463.29 437.64 467.33 426.04C470.13 418.01 477.48 411.13 481.15 404.16C487.11 392.82 488.53 381.17 494.97 370.77C507.21 350.99 526.16 335.97 539.88 317.8C545.98 309.72 553.42 298.08 561.76 292.47C564.31 290.75 567.58 290.84 569.82 289.02C573.1 289.15 574.74 289.48 576.73 290.17C574.21 302.8 563.17 312.54 557.16 322.41C554.09 329.7 551.02 337 547.95 344.29C546.25 347.42 542.22 351.13 541.04 354.65C538.26 362.96 540.2 367.96 536.43 374.22C525.77 391.96 515.3 409.21 505.34 428.34C503.76 431.37 499.09 436.59 498.43 439.85C497 446.9 504.77 468.53 506.49 475.54C508.81 485.01 507.71 503.11 512.25 510.08C512.26 522.95 493.93 539.43 485.77 544.62C487.21 548.78 490.85 552.28 493.83 554.98C492.55 565.92 480.62 567.45 473.1 572.25C466.96 578.39 460.82 584.53 454.68 590.67C447.65 595.95 440.88 600.39 433.95 605.64C420.58 615.76 410.85 631.25 397.1 641.33C358.56 669.61 313.12 695.49 266.99 715.02C257.04 719.24 246.89 718.54 235.9 721.93C225.39 725.17 213.24 731.05 201.36 732.29C199.29 737.23 197.51 741.03 193.3 743.8V746.1C207.76 759.85 217.6 751.91 239.36 757.61C243.18 758.61 247.11 761.16 250.87 762.22V767.98C239.23 770.16 204.24 766.37 197.9 774.89C197.52 775.27 197.13 775.66 196.75 776.04H197.9C198.71 778.7 199.75 781.06 201.35 782.95C204.64 785.07 214.35 785.13 217.47 786.4C218.36 790.73 218.72 796.63 218.62 802.52C235.12 794.74 242.12 798.72 254.31 807.13C255.75 814.99 253.45 832.53 257.76 838.22C258.14 838.99 258.53 839.75 258.91 840.52C296.9 842.91 331.9 826.34 360.24 814.04C371.53 809.14 383.45 804.85 390.18 795.62C397.06 786.17 400.71 775.49 407.45 765.68C412.14 758.86 431.57 740.99 438.54 735.74C474.63 708.57 507.79 678.52 546.78 653.99C565.08 642.47 583.97 631.73 603.2 621.75C612.93 616.7 624.17 614.16 633.14 607.93C638.45 604.24 640.88 596.05 644.65 590.66C655.96 574.52 666.73 558.15 678.04 541.15C692.28 519.75 708.64 499.44 724.1 478.97C732.57 467.76 746.63 460.24 754.04 447.88C757.4 442.28 757.41 435.93 759.8 429.46C765.99 412.7 771.28 393.6 775.92 375.34C776.3 366.13 776.69 356.92 777.07 347.71C771.85 328.65 742.33 305.92 727.56 294.74L727.55 294.78ZM372.91 58.73C372.88 50.94 368.6 41.48 369.46 38C371.9 28.08 383.69 5.71001 390.19 -1.14999C389.73 -3.51999 389.9 -3.37001 389.04 -4.60001V-5.75C380.32 -2.69 374.1 9.69 368.31 16.13C365.65 15.76 365.45 15.6 363.7 14.98C364.12 -7.63999 374.3 -16.43 383.27 -29.93C394.83 -47.3 404.72 -64.73 416.66 -81.74C423.05 -90.85 434.81 -100.79 438.54 -111.68C440.53 -112.42 439.67 -111.91 440.84 -112.83C445.16 -112.41 445.12 -111.94 447.75 -110.53C446.04 -93.19 432.64 -82.13 424.72 -70.23C419.41 -62.26 416.04 -54.35 410.9 -46.05C407.64 -40.79 403.49 -36.96 402.84 -28.78H406.29C415.76 -42.76 436.78 -62.67 441.98 -79.44C446.66 -79.5 451.57 -79.35 454.65 -78.29C452.34 -49.13 438.07 -25.03 428.17 -2.29999C417.22 22.85 408.96 49.27 393.63 70.24C387.11 75.61 380.58 80.99 374.06 86.36C367.28 96.12 371.8 104.09 368.3 117.45C366.92 122.72 363.52 126.77 361.39 131.27C360.24 131.65 359.09 132.04 357.94 132.42C356.06 129.18 355 126.88 351.03 125.51C352.39 107.27 361.22 65.88 372.91 58.73V58.73ZM501.87 138.18C497.59 148.37 500.53 166.91 494.96 176.18C484.77 193.13 469.61 205.87 458.11 221.09C454.24 226.21 450.49 232.25 445.44 236.06C432.22 246.04 416.22 257.45 406.29 270.6C386.44 296.89 363.85 320.53 344.11 346.59C339.97 352.05 332.86 354.51 327.99 359.26C322.09 359.5 315.71 360.02 313.02 356.96C311.06 352.58 315.17 339.72 316.47 333.93C319.93 318.54 314.55 302.79 318.77 289.02C320.7 282.74 324.22 273.51 327.98 268.29L339.49 256.78C342.04 250.57 338.86 242.36 340.64 234.9C344.45 218.9 347.67 195.36 348.7 178.48C358.98 182.03 380.93 200.8 386.7 209.57C412.56 209.76 421.12 193.58 433.91 180.78C450.87 163.82 470.32 147.27 484.57 127.81C491.18 118.79 495.15 108.03 501.84 99.02C509.46 88.76 521.02 82.47 527.17 70.23H529.47C527.28 96.29 510.61 117.27 501.84 138.16L501.87 138.18Z" stroke="white" stroke-opacity="0.3" stroke-miterlimit="10"/>
</svg>
