<svg width="430" height="1050" viewBox="0 0 430 1050" fill="none" xmlns="http://www.w3.org/2000/svg">
  <defs>
    <filter id="softShadow" x="-20%" y="-20%" width="140%" height="150%">
      <feDropShadow dx="0" dy="8" stdDeviation="8" flood-color="#162752" flood-opacity="0.12"/>
    </filter>
    <filter id="goldShadow" x="-20%" y="-20%" width="140%" height="150%">
      <feDropShadow dx="0" dy="8" stdDeviation="8" flood-color="#d3a044" flood-opacity="0.18"/>
    </filter>
    <marker id="navyArrow" markerWidth="14" markerHeight="14" refX="12" refY="7" orient="auto" markerUnits="userSpaceOnUse">
      <path d="M0 0L14 7L0 14V0Z" fill="#14244d"/>
    </marker>
    <marker id="goldArrow" markerWidth="14" markerHeight="14" refX="12" refY="7" orient="auto" markerUnits="userSpaceOnUse">
      <path d="M0 0L14 7L0 14V0Z" fill="#d2a03b"/>
    </marker>
  </defs>

  <rect width="430" height="1050" fill="#fffdfb"/>
  <path d="M0 910C54 944 121 957 204 949C287 941 354 961 430 1000V1050H0V910Z" fill="#f7f8fb"/>
  <path d="M28 138C73 93 123 73 178 78C232 83 273 67 324 30" stroke="#eef1f6" stroke-width="20" stroke-linecap="round"/>

  <circle cx="215" cy="105" r="70" fill="white" stroke="#14244d" stroke-width="8" filter="url(#softShadow)"/>
  <circle cx="215" cy="72" r="22" fill="#dfe4ee"/>
  <text x="215" y="81" text-anchor="middle" font-family="'Noto Sans TC', sans-serif" font-size="26" font-weight="900" fill="#14244d">!</text>
  <text x="215" y="128" text-anchor="middle" font-family="'Noto Serif TC', serif" font-size="34" font-weight="900" fill="#14244d">問題點</text>

  <text x="104" y="224" text-anchor="middle" font-family="'Noto Sans TC', sans-serif" font-size="13" font-weight="900" fill="#14244d" letter-spacing="2">訴訟流程</text>
  <text x="324" y="224" text-anchor="middle" font-family="'Noto Sans TC', sans-serif" font-size="13" font-weight="900" fill="#b17a24" letter-spacing="2">協商路徑</text>

  <path d="M190 169C162 196 133 204 104 244" stroke="#14244d" stroke-width="7" stroke-linecap="round" marker-end="url(#navyArrow)"/>
  <path d="M239 169C284 216 318 274 322 358" stroke="#d2a03b" stroke-width="7" stroke-linecap="round" marker-end="url(#goldArrow)"/>

  <g filter="url(#softShadow)">
    <rect x="43" y="255" width="122" height="72" rx="13" fill="white" stroke="#14244d" stroke-width="2"/>
    <path d="M89 274H114V299H89V274Z" stroke="#6f7895" stroke-width="2"/>
    <circle cx="101" cy="286" r="7" stroke="#6f7895" stroke-width="2"/>
    <path d="M109 294L119 304" stroke="#6f7895" stroke-width="3" stroke-linecap="round"/>
    <text x="104" y="315" text-anchor="middle" font-family="'Noto Serif TC', serif" font-size="24" font-weight="900" fill="#14244d">蒐證</text>
  </g>

  <path d="M104 331V354" stroke="#14244d" stroke-width="4" stroke-linecap="round" marker-end="url(#navyArrow)"/>
  <g filter="url(#softShadow)">
    <rect x="43" y="365" width="122" height="72" rx="13" fill="white" stroke="#14244d" stroke-width="2"/>
    <path d="M85 387H123V411H85V387Z" stroke="#6f7895" stroke-width="2"/>
    <path d="M86 388L104 402L122 388" stroke="#6f7895" stroke-width="2"/>
    <text x="104" y="426" text-anchor="middle" font-family="'Noto Serif TC', serif" font-size="23" font-weight="900" fill="#14244d">存證信函</text>
  </g>

  <path d="M104 441V464" stroke="#14244d" stroke-width="4" stroke-linecap="round" stroke-dasharray="8 8" marker-end="url(#navyArrow)"/>
  <g filter="url(#softShadow)">
    <rect x="43" y="475" width="122" height="72" rx="13" fill="white" stroke="#14244d" stroke-width="2"/>
    <circle cx="93" cy="498" r="10" stroke="#6f7895" stroke-width="2"/>
    <circle cx="116" cy="498" r="10" stroke="#6f7895" stroke-width="2"/>
    <path d="M80 520C83 511 88 506 94 506C100 506 105 511 108 520" stroke="#6f7895" stroke-width="2"/>
    <path d="M101 520C104 511 110 506 116 506C122 506 127 511 130 520" stroke="#6f7895" stroke-width="2"/>
    <text x="104" y="536" text-anchor="middle" font-family="'Noto Serif TC', serif" font-size="24" font-weight="900" fill="#14244d">調解</text>
  </g>

  <path d="M104 551V574" stroke="#14244d" stroke-width="4" stroke-linecap="round" stroke-dasharray="8 8" marker-end="url(#navyArrow)"/>
  <g filter="url(#softShadow)">
    <rect x="43" y="585" width="122" height="72" rx="13" fill="white" stroke="#14244d" stroke-width="2"/>
    <path d="M92 604H113L123 614V637H92V604Z" stroke="#6f7895" stroke-width="2"/>
    <path d="M113 604V615H123" stroke="#6f7895" stroke-width="2"/>
    <path d="M98 625H117" stroke="#6f7895" stroke-width="2" stroke-linecap="round"/>
    <text x="104" y="646" text-anchor="middle" font-family="'Noto Serif TC', serif" font-size="24" font-weight="900" fill="#14244d">提告</text>
  </g>

  <path d="M104 661V684" stroke="#14244d" stroke-width="4" stroke-linecap="round" stroke-dasharray="8 8" marker-end="url(#navyArrow)"/>
  <g filter="url(#softShadow)">
    <rect x="43" y="695" width="122" height="72" rx="13" fill="white" stroke="#14244d" stroke-width="2"/>
    <path d="M80 724H128" stroke="#6f7895" stroke-width="3" stroke-linecap="round"/>
    <path d="M87 716H121L104 704L87 716Z" stroke="#6f7895" stroke-width="2"/>
    <path d="M91 717V737M104 717V737M117 717V737" stroke="#6f7895" stroke-width="2"/>
    <text x="104" y="756" text-anchor="middle" font-family="'Noto Serif TC', serif" font-size="24" font-weight="900" fill="#14244d">開庭</text>
  </g>

  <path d="M104 771V794" stroke="#14244d" stroke-width="4" stroke-linecap="round" stroke-dasharray="8 8" marker-end="url(#navyArrow)"/>
  <g filter="url(#softShadow)">
    <rect x="43" y="805" width="122" height="72" rx="13" fill="white" stroke="#14244d" stroke-width="2"/>
    <path d="M92 823L122 853M116 817L86 847" stroke="#6f7895" stroke-width="4" stroke-linecap="round"/>
    <path d="M88 828L98 818M112 852L122 842" stroke="#6f7895" stroke-width="3" stroke-linecap="round"/>
    <text x="104" y="866" text-anchor="middle" font-family="'Noto Serif TC', serif" font-size="24" font-weight="900" fill="#14244d">判決</text>
  </g>

  <g filter="url(#goldShadow)">
    <rect x="247" y="375" width="150" height="92" rx="14" fill="#fffaf2" stroke="#d2a03b" stroke-width="3"/>
    <path d="M298 414C305 405 316 405 323 414C330 405 341 405 348 414" stroke="#d2a03b" stroke-width="4" stroke-linecap="round"/>
    <path d="M292 424L316 448L324 440L333 448L356 425" stroke="#d2a03b" stroke-width="4" stroke-linecap="round" stroke-linejoin="round"/>
    <text x="322" y="456" text-anchor="middle" font-family="'Noto Serif TC', serif" font-size="30" font-weight="900" fill="#b17a24">協商</text>
  </g>

  <path d="M322 468C322 614 295 748 248 852" stroke="#d2a03b" stroke-width="7" stroke-linecap="round" marker-end="url(#goldArrow)"/>
  <path d="M165 842C184 858 198 876 205 895" stroke="#14244d" stroke-width="7" stroke-linecap="round" marker-end="url(#navyArrow)"/>

  <circle cx="215" cy="925" r="72" fill="white" stroke="#14244d" stroke-width="8" filter="url(#softShadow)"/>
  <circle cx="215" cy="882" r="27" fill="white" stroke="#d2a03b" stroke-width="6"/>
  <path d="M201 882L211 892L231 869" stroke="#d2a03b" stroke-width="7" stroke-linecap="round" stroke-linejoin="round"/>
  <text x="215" y="947" text-anchor="middle" font-family="'Noto Serif TC', serif" font-size="31" font-weight="900" fill="#14244d">解決問題</text>

  <rect x="72" y="1000" width="286" height="38" rx="19" fill="#fffaf2" stroke="#ead6b0" stroke-width="2"/>
  <circle cx="107" cy="1019" r="18" fill="#d2a03b"/>
  <path d="M107 1008L110 1016H119L112 1022L115 1030L107 1025L99 1030L102 1022L95 1016H104L107 1008Z" fill="white"/>
  <text x="232" y="1025" text-anchor="middle" font-family="'Noto Sans TC', sans-serif" font-size="17" font-weight="800" fill="#7a5524">更快速・更彈性・更保密・更節省成本</text>
</svg>
